<svg width="348" height="401" viewBox="0 0 348 401" fill="none" xmlns="http://www.w3.org/2000/svg">
<g clip-path="url(#clip0_64_196)">
<path d="M4.41016 104.54V296.85L173.89 397.01L343.36 296.85V104.54L173.89 4.37988L4.41016 104.54Z" fill="url(#paint0_radial_64_196)"/>
<path d="M173.89 33.9199L318.32 117.31V284.08L173.89 367.47L29.4602 284.08V117.31L173.89 33.9199ZM173.89 4.37988L4.41016 104.54V296.85L173.89 397.01L343.41 296.85V104.54L173.89 4.37988Z" fill="url(#paint1_linear_64_196)"/>
<path d="M173.89 29.2899L322.32 114.99V286.38L173.89 372.08L25.4102 286.38V114.99L173.85 29.2899M173.85 4.37988L4.41016 104.54V296.85L173.89 397.01L343.41 296.85V104.54L173.85 4.37988Z" fill="url(#paint2_linear_64_196)"/>
<path d="M173.89 15.3799L334.34 108.02V293.38L173.89 385.97L13.4102 293.38V108.05L173.89 15.3799ZM173.89 4.37988L4.41016 104.54V296.85L173.89 397.01L343.41 296.85V104.54L173.89 4.37988Z" fill="#754D29"/>
<path d="M173.89 13.0999L336.35 106.9V294.49L173.89 388.29L11.4102 294.49V106.9L173.87 13.0999M173.87 0.379883L0.410156 100.54V300.85L173.89 401.01L347.41 300.85V100.54L173.89 0.379883L173.87 0.379883Z" fill="#DFB469"/>
<path d="M78.5401 125.56C77.0077 125.549 75.4962 125.916 74.1401 126.63C73.2906 124.422 71.7753 122.534 69.8044 121.226C67.8334 119.918 65.5044 119.255 63.1401 119.33C56.8101 119.33 51.6701 123.98 51.6701 129.71C51.6749 130.128 51.7049 130.546 51.7601 130.96H51.5101C46.1901 130.96 41.8801 134.31 41.8801 138.43C41.8801 142.55 46.2401 144.38 51.5601 144.38C56.2301 144.38 58.7401 143.04 60.9501 139.92C61.6701 140.05 64.4901 138.09 65.2501 138.04C67.7043 137.909 70.0971 137.225 72.2501 136.04C74.0601 136.88 77.0301 136.38 79.5601 136.38C83.9801 136.38 86.4901 135.59 86.4901 132.04C86.4901 128.49 82.9601 125.56 78.5401 125.56ZM263.57 128.38C264.642 125.446 266.602 122.921 269.179 121.155C271.755 119.389 274.818 118.472 277.94 118.53C286.25 118.53 292.99 124.81 292.99 132.53C292.986 133.099 292.946 133.666 292.87 134.23H293.26C300.26 134.23 305.89 138.75 305.89 144.32C305.89 149.89 300.17 152.32 293.19 152.32C287.06 152.32 283.77 150.51 280.87 146.32C279.93 146.5 276.23 143.85 275.23 143.78C271.978 143.606 268.812 142.678 265.98 141.07C260.21 139.38 262.31 127.68 263.57 128.38Z" fill="#B56628"/>
<path d="M50.8702 131.25C46.7902 131.25 42.7202 133.84 42.7202 136.47C42.7202 139.1 46.4002 142.95 50.1002 141.21C56.4002 138.21 57.3202 137.92 57.3202 135.3C57.3202 132.68 54.9402 131.25 50.8702 131.25Z" fill="#FAB562"/>
<path d="M62.7001 119.74C57.2701 119.74 52.5601 123.13 52.5601 126.35C52.5601 129.57 57.1701 133.7 62.3901 132.19C66.6901 130.94 68.5301 129.19 72.2201 126.35C74.7401 124.38 68.1301 119.74 62.7001 119.74ZM79.1301 125.7C76.8801 125.61 74.3701 125.86 74.1301 127.83C73.8501 130.46 76.0801 129.64 79.1301 129.64C82.1801 129.64 85.1301 131.02 85.1301 129.13C85.1301 127.24 81.5401 125.81 79.1301 125.7ZM293.05 132.69C298.2 132.24 303.66 135.37 303.98 138.99C304.3 142.61 300.12 148.35 295.24 146.37C286.91 142.98 285.71 142.62 285.39 139C285.07 135.38 287.9 133.15 293.05 132.69ZM276.7 118.1C283.56 117.5 289.93 121.66 290.32 126.1C290.71 130.54 285.39 136.76 278.6 135.26C273.01 134.02 270.47 131.86 265.46 128.26C262.03 125.87 269.83 118.71 276.7 118.1Z" fill="#FAB562"/>
<path d="M111.52 118.65L140.74 100.09C142.6 98.2399 146.56 98.3799 149.18 98.3799L163.12 98.6399C164.939 98.6388 166.713 99.2059 168.194 100.262C169.675 101.318 170.789 102.81 171.38 104.53L173.84 114.82C174.451 116.579 174.605 118.464 174.289 120.298C173.972 122.133 173.195 123.857 172.03 125.31L148.41 139.52" fill="#F9D53D"/>
<path d="M111.52 118.65L140.74 100.09C142.6 98.2399 146.56 98.3799 149.18 98.3799L163.12 98.6399C164.939 98.6388 166.713 99.2059 168.194 100.262C169.675 101.318 170.789 102.81 171.38 104.53L173.84 114.82C174.451 116.579 174.605 118.464 174.289 120.298C173.972 122.133 173.195 123.857 172.03 125.31L148.41 139.52" stroke="#8D4E23" stroke-width="3.41" stroke-miterlimit="10"/>
<path d="M109.41 141.18H145.07C145.595 141.181 146.112 141.06 146.582 140.827C147.052 140.595 147.462 140.256 147.78 139.839C148.097 139.422 148.314 138.936 148.413 138.421C148.512 137.906 148.49 137.375 148.35 136.87L143.67 119.95C143.473 119.231 143.045 118.598 142.452 118.146C141.86 117.694 141.135 117.45 140.39 117.45H114.1C113.358 117.45 112.636 117.692 112.044 118.14C111.452 118.587 111.022 119.216 110.82 119.93L106.08 136.86C105.937 137.37 105.914 137.907 106.015 138.427C106.116 138.947 106.337 139.436 106.66 139.856C106.984 140.276 107.401 140.614 107.878 140.844C108.356 141.074 108.88 141.189 109.41 141.18ZM169.51 101.42L142.93 117.45Z" fill="#F9D53D"/>
<path d="M169.51 101.42L142.93 117.45M109.41 141.18H145.07C145.595 141.181 146.112 141.06 146.582 140.827C147.052 140.595 147.462 140.256 147.78 139.839C148.097 139.422 148.314 138.936 148.413 138.421C148.512 137.906 148.49 137.375 148.35 136.87L143.67 119.95C143.473 119.231 143.045 118.598 142.452 118.146C141.86 117.694 141.135 117.45 140.39 117.45H114.1C113.358 117.45 112.636 117.692 112.044 118.14C111.452 118.587 111.022 119.216 110.82 119.93L106.08 136.86C105.937 137.37 105.914 137.907 106.015 138.427C106.116 138.947 106.337 139.436 106.66 139.856C106.984 140.276 107.401 140.614 107.878 140.844C108.356 141.074 108.88 141.189 109.41 141.18Z" stroke="#8D4E23" stroke-width="3.41" stroke-miterlimit="10"/>
<path d="M137.41 129L166.63 110.44C168.49 108.59 172.45 108.73 175.07 108.73L189.01 108.99C190.827 108.99 192.6 109.556 194.08 110.61C195.56 111.664 196.676 113.153 197.27 114.87L199.73 125.16C200.343 126.92 200.498 128.807 200.181 130.644C199.865 132.48 199.087 134.206 197.92 135.66L174.31 149.86" fill="#F9D53D"/>
<path d="M137.41 129L166.63 110.44C168.49 108.59 172.45 108.73 175.07 108.73L189.01 108.99C190.827 108.99 192.6 109.556 194.08 110.61C195.56 111.664 196.676 113.153 197.27 114.87L199.73 125.16C200.343 126.92 200.498 128.807 200.181 130.644C199.865 132.48 199.087 134.206 197.92 135.66L174.31 149.86" stroke="#8D4E23" stroke-width="3.41" stroke-miterlimit="10"/>
<path d="M135.26 151.53H170.92C171.445 151.53 171.962 151.41 172.432 151.177C172.902 150.944 173.312 150.606 173.63 150.189C173.947 149.771 174.164 149.286 174.263 148.771C174.362 148.256 174.34 147.725 174.2 147.22L169.52 130.29C169.32 129.574 168.891 128.943 168.298 128.494C167.706 128.044 166.984 127.801 166.24 127.8H140C139.258 127.798 138.535 128.04 137.943 128.488C137.35 128.936 136.921 129.565 136.72 130.28L131.98 147.21C131.838 147.716 131.815 148.248 131.913 148.764C132.011 149.281 132.228 149.767 132.545 150.186C132.863 150.604 133.274 150.944 133.745 151.177C134.216 151.41 134.735 151.531 135.26 151.53ZM195.41 111.77L168.83 127.8ZM205.82 125.97L197.67 148.97C197.655 149.266 197.716 149.562 197.848 149.828C197.979 150.094 198.177 150.323 198.421 150.491C198.666 150.659 198.949 150.762 199.245 150.79C199.541 150.818 199.838 150.77 200.11 150.65L233.87 136.03C234.346 135.824 234.776 135.523 235.131 135.145C235.487 134.766 235.761 134.32 235.937 133.831C236.113 133.343 236.187 132.824 236.155 132.306C236.123 131.788 235.985 131.282 235.75 130.82L229.7 116.05L205.82 125.97Z" fill="#F9D53D"/>
<path d="M195.41 111.77L168.83 127.8M135.26 151.53H170.92C171.445 151.53 171.962 151.41 172.432 151.177C172.902 150.944 173.312 150.606 173.63 150.189C173.947 149.771 174.164 149.286 174.263 148.771C174.362 148.256 174.34 147.725 174.2 147.22L169.52 130.29C169.32 129.574 168.891 128.943 168.298 128.494C167.706 128.044 166.984 127.801 166.24 127.8H140C139.258 127.798 138.535 128.04 137.943 128.488C137.35 128.936 136.921 129.565 136.72 130.28L131.98 147.21C131.838 147.716 131.815 148.248 131.913 148.764C132.011 149.281 132.228 149.767 132.545 150.186C132.863 150.604 133.274 150.944 133.745 151.177C134.216 151.41 134.735 151.531 135.26 151.53ZM205.82 125.97L197.67 148.97C197.655 149.266 197.716 149.562 197.848 149.828C197.979 150.094 198.177 150.323 198.421 150.491C198.666 150.659 198.949 150.762 199.245 150.79C199.541 150.818 199.838 150.77 200.11 150.65L233.87 136.03C234.346 135.824 234.776 135.523 235.131 135.145C235.487 134.766 235.761 134.32 235.937 133.831C236.113 133.343 236.187 132.824 236.155 132.306C236.123 131.788 235.985 131.282 235.75 130.82L229.7 116.05L205.82 125.97Z" stroke="#8D4E23" stroke-width="3.41" stroke-miterlimit="10"/>
<path d="M196.64 148.38L165.64 107.58C163.78 105.49 164.3 100.15 166.51 98.4499L173.41 85.8499C173.466 85.7477 173.547 85.6609 173.645 85.5977C173.742 85.5344 173.855 85.4966 173.971 85.4877C174.087 85.4787 174.204 85.4989 174.31 85.5465C174.416 85.594 174.509 85.6674 174.58 85.7599L205.29 125.3C205.654 125.732 205.839 126.286 205.81 126.85L198.41 147.78C198.403 147.982 198.334 148.178 198.213 148.34C198.092 148.503 197.924 148.625 197.732 148.69C197.54 148.755 197.333 148.76 197.138 148.705C196.943 148.649 196.769 148.536 196.64 148.38Z" fill="#F9D53D" stroke="#8D4E23" stroke-width="3.41" stroke-miterlimit="10"/>
<path d="M175.01 83.8898L190.31 77.0098C191.475 76.4841 192.778 76.3441 194.028 76.6103C195.278 76.8766 196.41 77.535 197.26 78.4898L228.54 113.62C228.763 113.859 228.925 114.149 229.01 114.465C229.095 114.781 229.101 115.113 229.028 115.431C228.955 115.75 228.805 116.046 228.591 116.293C228.377 116.541 228.105 116.732 227.8 116.85L209.88 124.29C208.683 124.787 207.357 124.888 206.098 124.579C204.838 124.27 203.711 123.566 202.88 122.57L174.04 88.1198C173.772 87.7969 173.582 87.4164 173.484 87.008C173.387 86.5996 173.385 86.1742 173.479 85.7649C173.573 85.3557 173.76 84.9736 174.025 84.6484C174.291 84.3232 174.628 84.0636 175.01 83.8898Z" fill="#F9D53D" stroke="#8D4E23" stroke-width="3.41" stroke-miterlimit="10"/>
<path d="M136.67 136.66C136.67 136.66 151.67 124.38 169.51 136.66L168.04 131.2C168.04 131.2 167.77 129.31 165.09 129.53H140.25C140.25 129.53 138.97 128.82 138.12 131.63L136.67 136.66ZM109.91 130.13C109.91 130.13 112.72 120.25 137.91 119.33H115.28C114.426 119.164 113.541 119.324 112.8 119.78C112.516 120.374 112.288 120.993 112.12 121.63L109.91 130.13ZM122.35 113.9C134.814 106.093 148.979 101.414 163.64 100.26H147.33C147.33 100.26 143.92 99.3199 139.66 102.9L122.35 113.9Z" fill="#FFE4C5"/>
<path d="M173.49 89.7798L204.01 126.43L197.16 146.18L167.41 106.98C166.763 106.086 166.363 105.039 166.249 103.942C166.135 102.845 166.311 101.737 166.76 100.73C168.18 97.6398 171.02 92.0798 173.49 89.7798ZM202.68 140.61L232.85 128.31L234.25 131.7C234.25 131.7 235.42 133.7 232.8 134.75C230.18 135.8 199.58 149.04 199.58 149.04L202.68 140.61ZM163.64 114.32L171.39 124.2L174.78 122.28L167.03 112.19L163.64 114.32ZM173.49 127.01L170.85 128.82L174.44 141.53L175.89 146.91L188 139.66L176.72 124.97L173.49 127.01ZM171.1 142.7H135.02L133.76 147.38C133.76 147.38 132.76 149.9 135.7 149.85C138.64 149.8 170.18 149.85 170.18 149.85C170.18 149.85 172.84 150.05 172.6 147.58L171.1 142.7ZM144.75 118.19L145.87 121.63L165.09 109.44C165.09 109.44 163.3 107.58 163.35 107.1L144.75 118.19ZM141.41 119.55L133.6 125.31C132.712 125.975 132.091 126.937 131.85 128.02C131.48 129.81 130.08 135.09 130.08 135.09H108.41L107.83 137.32C107.83 137.32 107.35 139.15 109.57 139.52H132.38L135.24 129.52C135.24 129.52 135.53 127.72 138.39 126.41L142.96 123.51L142.07 120.31C141.94 119.99 141.708 119.723 141.41 119.55Z" fill="#E78826"/>
<path d="M177.41 84.7199C184.111 84.0823 190.867 85.0422 197.125 87.521C203.383 89.9998 208.964 93.9268 213.41 98.9799C228.9 116.39 197.91 81.5699 197.91 81.5699C197.91 81.5699 195.38 78.2699 193.91 78.3099C192.841 78.1067 191.735 78.2577 190.76 78.7399L177.41 84.7199ZM207.41 127.11C207.41 127.11 227.6 120.75 231.79 126.11L229.04 118.21L207.41 127.11ZM163.64 114.32C163.64 114.32 150.79 124.21 156.22 126H145.29L163.64 114.32Z" fill="#FFE4C5"/>
</g>
<defs>
<radialGradient id="paint0_radial_64_196" cx="0" cy="0" r="1" gradientUnits="userSpaceOnUse" gradientTransform="translate(166.83 196.81) scale(172.73 172.73)">
<stop offset="0.59" stop-color="#CA9D3E"/>
<stop offset="1" stop-color="#B88830"/>
</radialGradient>
<linearGradient id="paint1_linear_64_196" x1="173.89" y1="401.01" x2="173.89" y2="0.379891" gradientUnits="userSpaceOnUse">
<stop stop-color="#FEEC98"/>
<stop offset="0.07" stop-color="#FEE383"/>
<stop offset="0.18" stop-color="#FFD666"/>
<stop offset="0.29" stop-color="#FFCD52"/>
<stop offset="0.4" stop-color="#FFC845"/>
<stop offset="0.5" stop-color="#FFC641"/>
<stop offset="0.7" stop-color="#946828"/>
</linearGradient>
<linearGradient id="paint2_linear_64_196" x1="173.89" y1="0.379883" x2="173.89" y2="401.01" gradientUnits="userSpaceOnUse">
<stop stop-color="#FED14F"/>
<stop offset="0.02" stop-color="#F9CC4D"/>
<stop offset="0.14" stop-color="#DFAF41"/>
<stop offset="0.26" stop-color="#CB9B38"/>
<stop offset="0.38" stop-color="#C08E33"/>
<stop offset="0.5" stop-color="#BC8A31"/>
<stop offset="0.7" stop-color="#A94E25"/>
<stop offset="1" stop-color="#FCDC56"/>
</linearGradient>
<clipPath id="clip0_64_196">
<rect width="346.95" height="400.63" fill="white" transform="translate(0.410156 0.379883)"/>
</clipPath>
</defs>
</svg>
