<svg width="48" height="48" viewBox="0 0 48 48" fill="none" xmlns="http://www.w3.org/2000/svg">
<path d="M20.7475 11.3252C20.5187 11.325 20.2993 11.2339 20.1374 11.0721C19.9756 10.9102 19.8846 10.6908 19.8843 10.462V10.4109L21.0628 5.47466C21.0783 5.2567 21.1756 5.05267 21.3354 4.9036C21.4951 4.75453 21.7054 4.67148 21.9239 4.67114H26.0762C26.2947 4.67148 26.505 4.75453 26.6647 4.9036C26.8245 5.05267 26.9219 5.2567 26.9373 5.47466L28.1159 10.4109V10.462C28.1156 10.6909 28.0246 10.9103 27.8628 11.0721C27.7009 11.234 27.4815 11.325 27.2526 11.3252H20.7475Z" fill="#CCEFFE"/>
<path d="M26.0782 4L26.2225 4.00656C26.5577 4.03877 26.8747 4.18053 27.123 4.41201C27.3891 4.66035 27.5569 4.99524 27.5995 5.35516L28.77 10.2545L28.7874 10.3321V10.4622L28.7798 10.6141C28.7446 10.965 28.5897 11.2947 28.3383 11.5463C28.0507 11.8338 27.6608 11.9961 27.2541 11.9966H20.7472C20.3406 11.996 19.9506 11.8338 19.663 11.5463C19.3757 11.2588 19.2144 10.8687 19.2139 10.4622V10.3321L19.2314 10.2545L20.4018 5.35079C20.4453 4.99251 20.6132 4.65936 20.8783 4.41201C21.162 4.14755 21.5353 4.00069 21.9231 4H26.0782ZM21.8553 5.35626C21.8329 5.36507 21.8121 5.37779 21.7941 5.39451C21.7763 5.41116 21.7618 5.43079 21.7515 5.45243L21.7329 5.52237L21.7297 5.57702L21.7165 5.63057L20.5592 10.4775C20.5631 10.5224 20.5806 10.5655 20.6127 10.5977C20.6488 10.6337 20.6984 10.6534 20.7494 10.6534H27.253L27.3263 10.6392C27.3493 10.6297 27.3706 10.6156 27.3886 10.5977C27.4207 10.5655 27.4371 10.5224 27.441 10.4775L26.2848 5.63057L26.2716 5.57702L26.2684 5.52237C26.2649 5.47369 26.2428 5.4278 26.2072 5.39451C26.1892 5.37778 26.1684 5.36507 26.146 5.35626L26.076 5.34205H21.9253L21.8553 5.35626Z" fill="#223948"/>
<path d="M12.7384 17.3374C12.5764 17.499 12.3569 17.5898 12.128 17.5898C11.8991 17.5898 11.6796 17.499 11.5176 17.3374L11.4815 17.3013L8.82438 12.9775C8.68117 12.8125 8.60576 12.5993 8.61332 12.381C8.62087 12.1626 8.71083 11.9552 8.8651 11.8004L11.8012 8.86432C11.956 8.71005 12.1634 8.62009 12.3817 8.61254C12.6001 8.60498 12.8132 8.68039 12.9783 8.8236L17.3021 11.4807L17.3382 11.5168C17.4999 11.6788 17.5907 11.8983 17.5907 12.1272C17.5907 12.3561 17.4999 12.5756 17.3382 12.7377L12.7384 17.3374Z" fill="#CCEFFE"/>
<path d="M11.3275 8.38885L11.4341 8.29148C11.6939 8.07719 12.0183 7.95331 12.3576 7.94142C12.7213 7.92883 13.0768 8.04701 13.3614 8.27139L17.6534 10.9081L17.7207 10.9506L17.8126 11.0426L17.9146 11.1554C18.1379 11.4284 18.2615 11.7711 18.2616 12.1268C18.2616 12.5334 18.1006 12.9239 17.8134 13.2118L13.2123 17.8129C12.9244 18.1 12.5339 18.2611 12.1273 18.2611C11.7208 18.261 11.3309 18.0992 11.0431 17.8121L10.9511 17.7202L10.9086 17.6529L8.2688 13.3578C8.04616 13.0738 7.92938 12.7194 7.94191 12.3571C7.95549 11.9695 8.1156 11.6017 8.38935 11.327L11.3275 8.38885ZM9.30046 12.3339C9.29084 12.356 9.28508 12.3797 9.28423 12.4042C9.28339 12.4286 9.28704 12.4527 9.29505 12.4753L9.33137 12.5379L9.36769 12.5789L9.39628 12.626L12.0052 16.8716C12.0398 16.9007 12.0826 16.9188 12.1281 16.9188C12.179 16.9187 12.228 16.8976 12.2641 16.8616L16.8629 12.2628L16.9046 12.201C16.9141 12.1779 16.9192 12.153 16.9193 12.1276C16.9193 12.0821 16.9004 12.04 16.8714 12.0055L12.6265 9.39578L12.5794 9.36719L12.5384 9.33087C12.5015 9.29888 12.4535 9.28205 12.4047 9.28373C12.3802 9.28458 12.3565 9.29033 12.3344 9.29996L12.2749 9.33937L9.33987 12.2744L9.30046 12.3339Z" fill="#223948"/>
<path d="M11.325 27.2526C11.3247 27.4814 11.2337 27.7008 11.0718 27.8627C10.91 28.0245 10.6906 28.1156 10.4617 28.1158H10.4107L5.47441 26.9373C5.25646 26.9219 5.05243 26.8245 4.90336 26.6647C4.75429 26.505 4.67123 26.2947 4.6709 26.0762V21.9239C4.67123 21.7054 4.75429 21.4951 4.90336 21.3354C5.05243 21.1756 5.25646 21.0782 5.47441 21.0628L10.4107 19.8843H10.4617C10.6906 19.8845 10.9101 19.9755 11.0719 20.1374C11.2337 20.2992 11.3248 20.5187 11.325 20.7475V27.2526Z" fill="#CCEFFE"/>
<path d="M4 21.9224L4.00656 21.7781C4.03877 21.4429 4.18053 21.1259 4.41201 20.8776C4.66035 20.6115 4.99524 20.4437 5.35516 20.4011L10.2545 19.2307L10.3321 19.2132H10.4622L10.6141 19.2208C10.965 19.256 11.2947 19.4109 11.5463 19.6623C11.8338 19.9499 11.9961 20.3398 11.9966 20.7465V27.2534C11.996 27.66 11.8338 28.0501 11.5463 28.3376C11.2588 28.6249 10.8687 28.7862 10.4622 28.7867H10.3321L10.2545 28.7693L5.35079 27.5988C4.99251 27.5554 4.65936 27.3874 4.41201 27.1223C4.14755 26.8386 4.00069 26.4653 4 26.0775V21.9224ZM5.35626 26.1453C5.36507 26.1677 5.37779 26.1886 5.39451 26.2065C5.41116 26.2243 5.43079 26.2388 5.45243 26.2491L5.52237 26.2677L5.57702 26.2709L5.63057 26.2841L10.4775 27.4414C10.5224 27.4375 10.5655 27.42 10.5977 27.3879C10.6337 27.3518 10.6534 27.3022 10.6534 27.2513V20.7476L10.6392 20.6743C10.6297 20.6513 10.6156 20.63 10.5977 20.612C10.5655 20.5799 10.5224 20.5635 10.4775 20.5596L5.63057 21.7159L5.57702 21.729L5.52237 21.7322C5.47369 21.7357 5.4278 21.7578 5.39451 21.7934C5.37778 21.8114 5.36507 21.8322 5.35626 21.8546L5.34205 21.9246V26.0753L5.35626 26.1453Z" fill="#223948"/>
<path d="M17.3379 35.2627C17.4995 35.4247 17.5903 35.6442 17.5903 35.8731C17.5903 36.102 17.4995 36.3215 17.3379 36.4835L17.3018 36.5196L12.978 39.1767C12.8129 39.3199 12.5998 39.3953 12.3814 39.3878C12.1631 39.3802 11.9557 39.2903 11.8009 39.136L8.8648 36.1999C8.71054 36.0451 8.62058 35.8377 8.61303 35.6194C8.60547 35.401 8.68088 35.1879 8.82409 35.0228L11.4812 30.699L11.5173 30.6629C11.6793 30.5012 11.8988 30.4104 12.1277 30.4104C12.3566 30.4104 12.5761 30.5012 12.7381 30.6629L17.3379 35.2627Z" fill="#CCEFFE"/>
<path d="M8.38934 36.6733L8.29197 36.5666C8.07768 36.3068 7.9538 35.9824 7.9419 35.6432C7.92932 35.2794 8.0475 34.924 8.27188 34.6393L10.9086 30.3473L10.9511 30.2801L11.0431 30.1881L11.1559 30.0861C11.4289 29.8629 11.7715 29.7392 12.1273 29.7391C12.5339 29.7391 12.9244 29.9002 13.2123 30.1873L17.8134 34.7885C18.1005 35.0764 18.2616 35.4668 18.2616 35.8735C18.2615 36.2799 18.0997 36.6699 17.8126 36.9577L17.7206 37.0496L17.6534 37.0921L13.3583 39.7319C13.0742 39.9546 12.7199 40.0714 12.3576 40.0588C11.97 40.0452 11.6022 39.8851 11.3274 39.6114L8.38934 36.6733ZM12.3344 38.7003C12.3565 38.7099 12.3802 38.7157 12.4047 38.7165C12.4291 38.7173 12.4532 38.7137 12.4758 38.7057L12.5384 38.6694L12.5793 38.633L12.6265 38.6045L16.8721 35.9956C16.9011 35.961 16.9193 35.9182 16.9193 35.8727C16.9192 35.8217 16.8981 35.7728 16.8621 35.7367L12.2633 31.1379L12.2015 31.0961C12.1784 31.0866 12.1534 31.0815 12.128 31.0815C12.0826 31.0815 12.0405 31.1003 12.0059 31.1294L9.39627 35.3742L9.36768 35.4214L9.33136 35.4623C9.29937 35.4992 9.28253 35.5473 9.28422 35.596C9.28507 35.6205 9.29082 35.6443 9.30045 35.6663L9.33986 35.7259L12.2749 38.6609L12.3344 38.7003Z" fill="#223948"/>
<path d="M20.7475 36.6748C20.5187 36.675 20.2993 36.7661 20.1374 36.9279C19.9756 37.0898 19.8846 37.3092 19.8843 37.538V37.5891L21.0628 42.5253C21.0783 42.7433 21.1756 42.9473 21.3354 43.0964C21.4951 43.2455 21.7054 43.3285 21.9239 43.3289H26.0762C26.2947 43.3285 26.505 43.2455 26.6647 43.0964C26.8245 42.9473 26.9219 42.7433 26.9373 42.5253L28.1159 37.5891V37.538C28.1156 37.3091 28.0246 37.0897 27.8628 36.9279C27.7009 36.766 27.4815 36.675 27.2526 36.6748H20.7475Z" fill="#CCEFFE"/>
<path d="M26.0782 44L26.2225 43.9934C26.5577 43.9612 26.8747 43.8195 27.123 43.588C27.3891 43.3397 27.5569 43.0048 27.5995 42.6448L28.77 37.7455L28.7874 37.6679V37.5378L28.7798 37.3859C28.7446 37.035 28.5897 36.7053 28.3383 36.4537C28.0507 36.1662 27.6608 36.0039 27.2541 36.0034H20.7472C20.3406 36.004 19.9506 36.1662 19.663 36.4537C19.3757 36.7412 19.2144 37.1313 19.2139 37.5378V37.6679L19.2314 37.7455L20.4018 42.6492C20.4453 43.0075 20.6132 43.3406 20.8783 43.588C21.162 43.8525 21.5353 43.9993 21.9231 44H26.0782ZM21.8553 42.6437C21.8329 42.6349 21.8121 42.6222 21.7941 42.6055C21.7763 42.5888 21.7618 42.5692 21.7515 42.5476L21.7329 42.4776L21.7297 42.423L21.7165 42.3694L20.5592 37.5225C20.5631 37.4776 20.5806 37.4345 20.6127 37.4023C20.6488 37.3663 20.6984 37.3466 20.7494 37.3466H27.253L27.3263 37.3608C27.3493 37.3703 27.3706 37.3844 27.3886 37.4023C27.4207 37.4345 27.4371 37.4776 27.441 37.5225L26.2848 42.3694L26.2716 42.423L26.2684 42.4776C26.2649 42.5263 26.2428 42.5722 26.2072 42.6055C26.1892 42.6222 26.1684 42.6349 26.146 42.6437L26.076 42.658H21.9253L21.8553 42.6437Z" fill="#223948"/>
<path d="M30.6626 35.2625C30.501 35.4246 30.4102 35.6441 30.4102 35.873C30.4102 36.1018 30.501 36.3214 30.6626 36.4834L30.6987 36.5195L35.0225 39.1766C35.1875 39.3198 35.4007 39.3952 35.619 39.3877C35.8374 39.3801 36.0448 39.2901 36.1996 39.1359L39.1357 36.1998C39.29 36.045 39.3799 35.8376 39.3875 35.6192C39.395 35.4009 39.3196 35.1877 39.1764 35.0227L36.5193 30.6989L36.4832 30.6628C36.3212 30.5011 36.1017 30.4103 35.8728 30.4103C35.6439 30.4103 35.4244 30.5011 35.2623 30.6628L30.6626 35.2625Z" fill="#CCEFFE"/>
<path d="M39.6111 36.6732L39.7085 36.5665C39.9228 36.3067 40.0467 35.9823 40.0586 35.643C40.0712 35.2793 39.953 34.9238 39.7286 34.6392L37.0919 30.3472L37.0494 30.28L36.9574 30.188L36.8446 30.086C36.5716 29.8627 36.2289 29.7391 35.8732 29.739C35.4666 29.739 35.0761 29.9 34.7882 30.1872L30.1871 34.7883C29.9 35.0762 29.7389 35.4667 29.7389 35.8733C29.739 36.2798 29.9008 36.6697 30.1879 36.9575L30.2798 37.0495L30.3471 37.092L34.6422 39.7318C34.9262 39.9544 35.2806 40.0712 35.6429 40.0587C36.0305 40.0451 36.3983 39.885 36.673 39.6113L39.6111 36.6732ZM35.6661 38.7002C35.644 38.7098 35.6203 38.7155 35.5958 38.7164C35.5714 38.7172 35.5473 38.7136 35.5247 38.7056L35.4621 38.6692L35.4211 38.6329L35.374 38.6043L31.1284 35.9954C31.0993 35.9608 31.0812 35.9181 31.0812 35.8726C31.0813 35.8216 31.1024 35.7726 31.1384 35.7365L35.7372 31.1377L35.799 31.096C35.8221 31.0865 35.847 31.0814 35.8724 31.0813C35.9179 31.0813 35.96 31.1002 35.9945 31.1292L38.6042 35.3741L38.6328 35.4213L38.6691 35.4622C38.7011 35.4991 38.718 35.5471 38.7163 35.5959C38.7154 35.6204 38.7097 35.6441 38.7 35.6662L38.6606 35.7257L35.7256 38.6607L35.6661 38.7002Z" fill="#223948"/>
<path d="M36.6755 27.2526C36.6758 27.4814 36.7668 27.7008 36.9287 27.8627C37.0905 28.0245 37.3099 28.1156 37.5388 28.1158H37.5898L42.5261 26.9373C42.744 26.9219 42.9481 26.8245 43.0971 26.6647C43.2462 26.505 43.3293 26.2947 43.3296 26.0762V21.9239C43.3293 21.7054 43.2462 21.4951 43.0971 21.3354C42.9481 21.1756 42.744 21.0782 42.5261 21.0628L37.5898 19.8843H37.5388C37.3099 19.8845 37.0904 19.9755 36.9286 20.1374C36.7667 20.2992 36.6757 20.5187 36.6755 20.7475V27.2526Z" fill="#CCEFFE"/>
<path d="M44 21.9224L43.9934 21.7781C43.9612 21.4429 43.8195 21.1259 43.588 20.8776C43.3397 20.6115 43.0048 20.4437 42.6448 20.4011L37.7455 19.2307L37.6679 19.2132H37.5378L37.3859 19.2208C37.035 19.256 36.7053 19.4109 36.4537 19.6623C36.1662 19.9499 36.0039 20.3398 36.0034 20.7465V27.2534C36.004 27.66 36.1662 28.0501 36.4537 28.3376C36.7412 28.6249 37.1313 28.7862 37.5378 28.7867H37.6679L37.7455 28.7693L42.6492 27.5988C43.0075 27.5554 43.3406 27.3874 43.588 27.1223C43.8525 26.8386 43.9993 26.4653 44 26.0775V21.9224ZM42.6437 26.1453C42.6349 26.1677 42.6222 26.1886 42.6055 26.2065C42.5888 26.2243 42.5692 26.2388 42.5476 26.2491L42.4776 26.2677L42.423 26.2709L42.3694 26.2841L37.5225 27.4414C37.4776 27.4375 37.4345 27.42 37.4023 27.3879C37.3663 27.3518 37.3466 27.3022 37.3466 27.2513V20.7476L37.3608 20.6743C37.3703 20.6513 37.3844 20.63 37.4023 20.612C37.4345 20.5799 37.4776 20.5635 37.5225 20.5596L42.3694 21.7159L42.423 21.729L42.4776 21.7322C42.5263 21.7357 42.5722 21.7578 42.6055 21.7934C42.6222 21.8114 42.6349 21.8322 42.6437 21.8546L42.658 21.9246V26.0753L42.6437 26.1453Z" fill="#223948"/>
<path d="M35.2625 17.3375C35.4246 17.4992 35.6441 17.5899 35.873 17.5899C36.1018 17.5899 36.3214 17.4992 36.4834 17.3375L36.5195 17.3014L39.1766 12.9776C39.3198 12.8126 39.3952 12.5994 39.3877 12.3811C39.3801 12.1627 39.2901 11.9553 39.1359 11.8006L36.1998 8.86444C36.045 8.71017 35.8376 8.62021 35.6192 8.61266C35.4009 8.60511 35.1877 8.68052 35.0227 8.82372L30.6989 11.4808L30.6628 11.5169C30.5011 11.6789 30.4103 11.8985 30.4103 12.1274C30.4103 12.3562 30.5011 12.5758 30.6628 12.7378L35.2625 17.3375Z" fill="#CCEFFE"/>
<path d="M36.6735 8.38898L36.5669 8.29161C36.307 8.07732 35.9827 7.95343 35.6434 7.94154C35.2796 7.92895 34.9242 8.04713 34.6396 8.27151L30.3476 10.9082L30.2803 10.9507L30.1884 11.0427L30.0864 11.1555C29.8631 11.4285 29.7395 11.7712 29.7394 12.1269C29.7394 12.5336 29.9004 12.924 30.1876 13.2119L34.7887 17.813C35.0766 18.1001 35.4671 18.2612 35.8737 18.2612C36.2802 18.2611 36.6701 18.0993 36.9579 17.8122L37.0499 17.7203L37.0924 17.653L39.7322 13.3579C39.9548 13.0739 40.0716 12.7195 40.0591 12.3572C40.0455 11.9696 39.8854 11.6018 39.6116 11.3271L36.6735 8.38898ZM38.7005 12.334C38.7101 12.3561 38.7159 12.3798 38.7167 12.4043C38.7176 12.4287 38.7139 12.4528 38.7059 12.4754L38.6696 12.538L38.6333 12.579L38.6047 12.6261L35.9958 16.8718C35.9612 16.9008 35.9184 16.9189 35.8729 16.9189C35.822 16.9188 35.773 16.8977 35.7369 16.8617L31.1381 12.2629L31.0964 12.2011C31.0869 12.1781 31.0817 12.1531 31.0817 12.1277C31.0817 12.0822 31.1006 12.0401 31.1296 12.0056L35.3745 9.39591L35.4216 9.36731L35.4626 9.33099C35.4994 9.29901 35.5475 9.28217 35.5963 9.28385C35.6208 9.2847 35.6445 9.29045 35.6666 9.30008L35.7261 9.33949L38.6611 12.2745L38.7005 12.334Z" fill="#223948"/>
<path fill-rule="evenodd" clip-rule="evenodd" d="M24.0008 9.06152C32.2509 9.06155 38.939 15.7497 38.939 23.9998C38.939 32.2499 32.2509 38.938 24.0008 38.938C15.7506 38.938 9.0625 32.25 9.0625 23.9998C9.06257 15.7497 15.7506 9.06152 24.0008 9.06152ZM23.9053 19.3776C21.4052 19.3776 19.3785 21.4042 19.3785 23.9043C19.3787 26.4042 21.4053 28.431 23.9053 28.431C26.405 28.4308 28.4319 26.4041 28.432 23.9043C28.432 21.4044 26.4051 19.3778 23.9053 19.3776Z" fill="#CCEFFE"/>
<path d="M24.001 9.06152C32.251 9.06168 38.9394 15.75 38.9395 24C38.9394 32.25 32.251 38.9384 24.001 38.9385C15.7509 38.9385 9.06262 32.2501 9.0625 24C9.06257 15.7499 15.7509 9.06152 24.001 9.06152ZM24.001 10.4047C16.4925 10.4047 10.4057 16.4916 10.4056 24L10.41 24.3508C10.5962 31.6971 16.6099 37.5954 24.001 37.5954L24.3518 37.591C31.698 37.4048 37.5962 31.391 37.5963 24L37.592 23.6492C37.4089 16.4194 31.5815 10.5923 24.3518 10.409L24.001 10.4047ZM24.2075 18.0428C27.3083 18.2003 29.7744 20.7637 29.7746 23.9038L29.767 24.2066C29.6095 27.3074 27.0456 29.7731 23.9059 29.7737H23.9048C20.7647 29.7734 18.2012 27.3075 18.0437 24.2066L18.0361 23.9038C18.0363 20.6625 20.6635 18.0354 23.9048 18.0351H23.9059L24.2075 18.0428ZM23.9048 19.3772C21.4051 19.3774 19.3784 21.4042 19.3781 23.9038C19.3783 26.4036 21.4051 28.4303 23.9048 28.4305C26.4046 28.4303 28.4314 26.4036 28.4315 23.9038C28.4313 21.4041 26.4045 19.3774 23.9048 19.3772Z" fill="#223948"/>
</svg>
