<svg width="100" height="100" viewBox="0 0 100 100" fill="none" xmlns="http://www.w3.org/2000/svg">
<rect width="100" height="100" rx="50" fill="#1FAB1C"/>
<rect width="100" height="100" rx="50" fill="white" fill-opacity="0.1"/>
<path d="M45.6216 72.395C44.8261 72.395 44.0787 72.0885 43.5159 71.5316L21.235 49.4866C20.0291 48.2934 20.0291 46.3519 21.235 45.1593L27.8521 38.6134C28.4358 38.0352 29.2123 37.7167 30.0388 37.7167C30.8653 37.7167 31.6419 38.0352 32.2256 38.6134L45.5869 51.8342L67.7437 28.5366C68.3609 27.9241 69.1375 27.6062 69.964 27.6062C70.7905 27.6062 71.567 27.9247 72.1507 28.5028L78.7672 35.0494C79.9718 36.2426 79.9718 38.1835 78.7672 39.3767L47.7527 71.5059C47.1652 72.0885 46.4172 72.395 45.6216 72.395Z" fill="#FFFFFE"/>
<path d="M69.9631 29.1702C70.3501 29.1702 70.7371 29.316 71.0318 29.6082L77.6482 36.1548C78.2382 36.7392 78.2382 37.6859 77.6482 38.2703L46.6091 70.4251C46.3366 70.6954 45.9786 70.83 45.6213 70.83C45.2641 70.83 44.9061 70.6948 44.6336 70.4251L22.3528 48.3808C21.7628 47.7964 21.7628 46.8497 22.3528 46.266L28.9692 39.7187C29.2645 39.4265 29.6509 39.2807 30.0379 39.2807C30.4249 39.2807 30.8113 39.4265 31.1066 39.7187L45.6213 54.0802L68.895 29.6082C69.1897 29.316 69.5767 29.1702 69.9631 29.1702V29.1702ZM69.9631 26.0417C68.7141 26.0417 67.5405 26.5235 66.6577 27.397L66.6242 27.4302L66.5919 27.4646L45.5524 49.5877L33.3427 37.5069C32.4605 36.6334 31.2868 36.1523 30.0379 36.1523C28.789 36.1523 27.6153 36.6341 26.7325 37.5075L20.1167 44.0541C18.2949 45.8555 18.2942 48.7887 20.1161 50.592L42.3969 72.637C43.2582 73.4891 44.4034 73.9584 45.6207 73.9584C46.8387 73.9584 47.9839 73.4891 48.8452 72.6363L48.8704 72.6113L48.8951 72.5856L79.9165 40.4495C81.7049 38.6438 81.6947 35.735 79.8843 33.9436L73.2678 27.3964C72.3857 26.5229 71.212 26.0417 69.9631 26.0417V26.0417Z" fill="#223948"/>
<rect x="2.08333" y="2.08333" width="95.8333" height="95.8333" rx="47.9167" stroke="black" stroke-opacity="0.2" stroke-width="4.16667"/>
<circle cx="49.9998" cy="50.0001" r="44.7917" stroke="white" stroke-width="2.08333"/>
</svg>
