<svg width="100" height="100" viewBox="0 0 100 100" fill="none" xmlns="http://www.w3.org/2000/svg">
<rect width="100" height="100" rx="50" fill="#1E90FF"/>
<rect width="100" height="100" rx="50" fill="white" fill-opacity="0.1"/>
<rect x="2.08333" y="2.08333" width="95.8333" height="95.8333" rx="47.9167" stroke="black" stroke-opacity="0.2" stroke-width="4.16667"/>
<path d="M65.617 28.0791H35.0333C33.5961 28.0791 32.4219 26.9009 32.4219 25.462V21.3643C32.4219 19.9255 33.5961 18.75 35.0333 18.75H65.617C67.0528 18.75 68.2292 19.9255 68.2292 21.3643V25.462C68.2312 26.9009 67.0549 28.0791 65.617 28.0791ZM65.617 81.25H35.0333C33.5961 81.25 32.4219 80.0725 32.4219 78.6329V74.5366C32.4219 73.0978 33.5961 71.9223 35.0333 71.9223H65.617C67.0528 71.9223 68.2292 73.0984 68.2292 74.5366V78.6329C68.2312 80.0711 67.0549 81.25 65.617 81.25Z" fill="#102733"/>
<path d="M56.8454 48.7229L61.7671 44.2239C62.1793 43.9661 62.4299 43.5162 62.4299 43.0313V33.1399C62.4299 32.0501 61.548 31.1675 60.4593 31.1675H40.2373C39.1239 31.1675 38.2222 32.0707 38.2222 33.1858V43.0293C38.2222 43.5148 38.4728 43.964 38.8843 44.2219L43.8059 48.7201C44.0476 48.8689 44.1955 49.1371 44.1955 49.4217V50.5704C44.1955 50.8571 44.0469 51.1225 43.8059 51.272L38.8843 55.7709C38.6817 55.897 38.5146 56.0728 38.3987 56.2816C38.2829 56.4904 38.2221 56.7254 38.2222 56.9643V66.855C38.2222 67.9441 39.1047 68.8267 40.1914 68.8267H60.4586C61.5473 68.8267 62.4292 67.9441 62.4292 66.855V56.9649C62.4292 56.4801 62.1779 56.0288 61.7664 55.7716L56.8448 51.2734C56.7255 51.1995 56.627 51.0962 56.5588 50.9734C56.4906 50.8506 56.455 50.7123 56.4552 50.5718V49.4231C56.4558 49.1385 56.6037 48.871 56.8454 48.7229Z" fill="#F6FFFF" fill-opacity="0.6" stroke="#102733" stroke-width="1.43229" stroke-miterlimit="10"/>
<path d="M41.3849 40.7626L48.9886 49.0815C49.0611 49.1624 49.1043 49.2667 49.1063 49.3771L49.4343 61.8266C49.4369 61.9138 49.4144 61.9998 49.3693 62.0744C49.3242 62.149 49.2586 62.2089 49.1803 62.247L45.044 64.3072C44.6153 64.5205 44.7674 65.1699 45.246 65.1699H55.9588C56.4292 65.1699 56.5895 64.5417 56.1793 64.3168L52.2635 62.1599C52.1923 62.1207 52.133 62.0632 52.0916 61.9932C52.0501 61.9233 52.0282 61.8435 52.028 61.7621V49.3771C52.028 49.268 52.067 49.1624 52.1382 49.0801L59.3159 40.7537C59.5707 40.4602 59.3632 40.0034 58.9722 40.0034H41.717C41.3247 40.002 41.1158 40.4711 41.3849 40.7626Z" fill="#F6FFFF"/>
<path d="M59.4275 40.0018C59.4275 40.5106 56.2251 40.9207 50.9016 40.9207C46.4551 40.9207 41.2637 40.5106 41.2637 40.0018C41.2637 39.4943 45.5787 39.0828 50.9016 39.0828C56.2245 39.0821 59.4275 39.4929 59.4275 40.0018Z" fill="#7290A7"/>
<circle cx="49.9998" cy="50.0001" r="44.7917" stroke="white" stroke-width="2.08333"/>
</svg>
