<svg width="100" height="100" viewBox="0 0 100 100" fill="none" xmlns="http://www.w3.org/2000/svg">
<rect width="100" height="100" rx="50" fill="#EF3F2A"/>
<rect width="100" height="100" rx="50" fill="white" fill-opacity="0.1"/>
<path d="M67.0707 77.5703C66.6436 77.5714 66.2205 77.4879 65.8258 77.3245C65.4311 77.1612 65.0727 76.9213 64.7713 76.6186L50.0008 61.8481L35.2302 76.618C34.929 76.9209 34.5706 77.1611 34.1759 77.3245C33.7812 77.488 33.358 77.5715 32.9308 77.5703C32.5037 77.5715 32.0805 77.488 31.6859 77.3246C31.2912 77.1613 30.9328 76.9213 30.6314 76.6186L23.3832 69.3697C23.0802 69.0684 22.84 68.7099 22.6766 68.3151C22.5131 67.9203 22.4296 67.497 22.4308 67.0697C22.4308 66.201 22.7687 65.3841 23.3838 64.7696L38.1537 50.0004L23.3832 35.2305C22.7687 34.6167 22.4302 33.7997 22.4302 32.9298C22.4302 32.0599 22.7687 31.2429 23.3832 30.6285L30.6308 23.3828C30.9322 23.0799 31.2907 22.8398 31.6855 22.6764C32.0803 22.5129 32.5035 22.4293 32.9308 22.4304C33.358 22.4292 33.7811 22.5127 34.1758 22.6761C34.5705 22.8394 34.9289 23.0794 35.2302 23.3821L50.0008 38.1527L64.7713 23.3828C65.0727 23.0799 65.4312 22.8398 65.826 22.6764C66.2208 22.5129 66.6441 22.4293 67.0713 22.4304C67.4985 22.4292 67.9216 22.5127 68.3163 22.6761C68.711 22.8394 69.0694 23.0794 69.3708 23.3821L76.619 30.6298C77.2335 31.2436 77.5714 32.0605 77.5714 32.9304C77.5714 33.8004 77.2335 34.6173 76.619 35.2311L61.8485 50.0004L76.619 64.7703C77.228 65.3807 77.57 66.2078 77.57 67.07C77.57 67.9323 77.228 68.7593 76.619 69.3697L69.3708 76.618C69.0694 76.9209 68.7109 77.161 68.3161 77.3245C67.9213 77.488 67.498 77.5715 67.0707 77.5703V77.5703Z" fill="#FFFFFE"/>
<path d="M67.0709 24.0269C67.495 24.0269 67.9184 24.1885 68.2416 24.5117L75.4899 31.758C75.8004 32.0688 75.9748 32.4902 75.9748 32.9295C75.9748 33.3688 75.8004 33.7901 75.4899 34.1009L59.5901 50L75.4899 65.8992C75.8003 66.2098 75.9747 66.6309 75.9747 67.07C75.9747 67.5091 75.8003 67.9302 75.4899 68.2408L68.2416 75.4884C68.0881 75.6424 67.9056 75.7645 67.7047 75.8477C67.5037 75.9309 67.2883 75.9735 67.0709 75.9732C66.8534 75.9734 66.638 75.9308 66.4371 75.8476C66.2362 75.7644 66.0537 75.6423 65.9001 75.4884L50.0009 59.5899L34.1011 75.4884C33.9476 75.6424 33.7651 75.7645 33.5641 75.8477C33.3632 75.9309 33.1478 75.9735 32.9303 75.9732C32.7129 75.9735 32.4975 75.9309 32.2965 75.8477C32.0956 75.7645 31.9131 75.6424 31.7596 75.4884L24.5126 68.2408C24.3587 68.0871 24.2367 67.9046 24.1534 67.7037C24.0701 67.5028 24.0273 67.2874 24.0273 67.07C24.0273 66.8525 24.0701 66.6372 24.1534 66.4363C24.2367 66.2354 24.3587 66.0529 24.5126 65.8992L40.4117 50L24.5126 34.1009C24.3587 33.9471 24.2366 33.7645 24.1533 33.5635C24.07 33.3625 24.0272 33.147 24.0272 32.9295C24.0272 32.7119 24.07 32.4964 24.1533 32.2955C24.2366 32.0945 24.3587 31.9118 24.5126 31.758L31.7602 24.5111C31.9138 24.3572 32.0964 24.2352 32.2973 24.152C32.4982 24.0688 32.7135 24.0261 32.931 24.0263C33.3545 24.0263 33.7786 24.1879 34.1018 24.5111L50.0009 40.4102L65.9001 24.5111C66.0538 24.3573 66.2363 24.2354 66.4372 24.1524C66.6381 24.0693 66.8535 24.0266 67.0709 24.0269V24.0269ZM67.0709 20.8333C66.4342 20.8316 65.8035 20.9562 65.2152 21.1997C64.6269 21.4431 64.0927 21.8008 63.6435 22.2519L50.0009 35.8938L36.3597 22.2538C35.9105 21.802 35.3762 21.4438 34.7876 21.2C34.1991 20.9562 33.568 20.8315 32.931 20.8333C32.2942 20.8317 31.6635 20.9562 31.0751 21.1997C30.4867 21.4432 29.9524 21.8008 29.5029 22.2519L22.2547 29.4995C21.3387 30.4148 20.8335 31.6328 20.8335 32.9295C20.8335 34.2261 21.3387 35.4448 22.2553 36.3601L35.8953 50L22.254 63.64C21.8024 64.0894 21.4443 64.6238 21.2005 65.2125C20.9566 65.8011 20.8319 66.4322 20.8335 67.0693C20.8318 67.7067 20.9565 68.3381 21.2006 68.9268C21.4446 69.5156 21.8032 70.0501 22.2553 70.4993L29.5017 77.7463C29.9511 78.1979 30.4855 78.556 31.0741 78.7998C31.6627 79.0436 32.2939 79.1684 32.931 79.1668C33.5679 79.1686 34.1988 79.0441 34.7873 78.8003C35.3757 78.5566 35.9099 78.1986 36.359 77.7469L50.0009 64.1063L63.6415 77.7463C64.0909 78.1979 64.6254 78.556 65.214 78.7998C65.8026 79.0436 66.4337 79.1684 67.0709 79.1668C67.7077 79.1685 68.3386 79.044 68.927 78.8004C69.5154 78.5568 70.0497 78.1989 70.4989 77.7476L77.7484 70.498C79.6378 68.6087 79.6384 65.5326 77.7491 63.6413L64.1065 50L77.7478 36.3601C79.6384 34.4688 79.6384 31.3914 77.7478 29.5008L70.4995 22.2532C70.0503 21.8016 69.5159 21.4436 68.9274 21.1999C68.3389 20.9562 67.7078 20.8316 67.0709 20.8333V20.8333Z" fill="#223948"/>
<rect x="2.08333" y="2.08333" width="95.8333" height="95.8333" rx="47.9167" stroke="black" stroke-opacity="0.2" stroke-width="4.16667"/>
<circle cx="49.9998" cy="50.0001" r="44.7917" stroke="white" stroke-width="2.08333"/>
</svg>
